<svg width="88" height="27" viewBox="0 0 88 27" fill="none" xmlns="http://www.w3.org/2000/svg">
<g clip-path="url(#clip0_591_512)">
<path fill-rule="evenodd" clip-rule="evenodd" d="M54.5935 20.7597C49.4796 24.5246 42.0674 26.5333 35.6857 26.5333C26.7374 26.5333 18.6817 23.2275 12.5873 17.7295C12.1084 17.2971 12.5375 16.7079 13.1121 17.0446C19.6892 20.8668 27.8215 23.1663 36.222 23.1663C41.8874 23.1663 48.1198 21.9955 53.8503 19.566C54.716 19.1987 55.44 20.1322 54.5935 20.7597Z" fill="white"/>
<path fill-rule="evenodd" clip-rule="evenodd" d="M56.7194 18.3302C56.0682 17.4961 52.3985 17.9361 50.7513 18.1312C50.2495 18.1924 50.1729 17.7562 50.6249 17.4425C53.5477 15.3879 58.3436 15.9809 58.9028 16.6696C59.4621 17.3622 58.7573 22.1639 56.0107 24.4557C55.5894 24.8077 55.1872 24.6202 55.3749 24.1535C55.9916 22.6154 57.3744 19.1681 56.7194 18.3302Z" fill="white"/>
<path fill-rule="evenodd" clip-rule="evenodd" d="M50.8664 2.93784V0.94062C50.8664 0.63836 51.0962 0.435577 51.372 0.435577H60.3241C60.6114 0.435577 60.8412 0.642186 60.8412 0.94062V2.65088C60.8374 2.93784 60.5961 3.31279 60.1671 3.90583L55.5282 10.5211C57.252 10.479 59.0715 10.7354 60.6344 11.6154C60.9868 11.8144 61.0826 12.1051 61.1094 12.3921V14.5232C61.1094 14.814 60.7876 15.1545 60.4505 14.9785C57.6963 13.5361 54.0381 13.3792 50.9928 14.9938C50.6825 15.1622 50.3569 14.8255 50.3569 14.5347V12.5107C50.3569 12.1855 50.3608 11.6307 50.6864 11.1371L56.0607 3.43905H51.3835C51.0962 3.43905 50.8664 3.23627 50.8664 2.93784Z" fill="white"/>
<path fill-rule="evenodd" clip-rule="evenodd" d="M18.2105 15.3994H15.487C15.2265 15.3803 15.0196 15.1851 15.0005 14.9364V0.975058C15.0005 0.695753 15.2342 0.473839 15.5253 0.473839H18.065C18.3293 0.485309 18.5399 0.688099 18.5591 0.94062V2.76566H18.6089C19.2716 1.00184 20.5165 0.17923 22.1943 0.17923C23.8989 0.17923 24.9638 1.00184 25.73 2.76566C26.3888 1.00184 27.8866 0.17923 29.4916 0.17923C30.6331 0.17923 31.8819 0.649838 32.6442 1.70584C33.506 2.88044 33.3298 4.58688 33.3298 6.08288L33.326 14.8943C33.326 15.1736 33.0923 15.3994 32.8012 15.3994H30.0815C29.8095 15.3803 29.5912 15.1622 29.5912 14.8943V7.4947C29.5912 6.90548 29.6448 5.43627 29.5146 4.87766C29.3116 3.94027 28.7025 3.67627 27.9134 3.67627C27.2545 3.67627 26.565 4.11627 26.2854 4.82027C26.0058 5.52427 26.0326 6.7027 26.0326 7.4947V14.8943C26.0326 15.1736 25.7989 15.3994 25.5078 15.3994H22.7881C22.5123 15.3803 22.2978 15.1622 22.2978 14.8943L22.2939 7.4947C22.2939 5.93749 22.5506 3.64566 20.6161 3.64566C18.6587 3.64566 18.7353 5.88009 18.7353 7.4947V14.8943C18.7353 15.1736 18.5016 15.3994 18.2105 15.3994" fill="white"/>
<path fill-rule="evenodd" clip-rule="evenodd" d="M68.5484 0.17923C72.5896 0.17923 74.7769 3.64566 74.7769 8.05331C74.7769 12.3117 72.3598 15.6902 68.5484 15.6902C64.5799 15.6902 62.4194 12.2237 62.4194 7.90409C62.4194 3.55766 64.6067 0.17923 68.5484 0.17923ZM68.5714 3.02966C66.5641 3.02966 66.4377 5.76149 66.4377 7.46409C66.4377 9.17053 66.4109 12.813 68.5484 12.813C70.659 12.813 70.7586 9.87453 70.7586 8.08392C70.7586 6.90549 70.7088 5.49749 70.3526 4.38027C70.0461 3.40845 69.4371 3.02966 68.5714 3.02966Z" fill="white"/>
<path fill-rule="evenodd" clip-rule="evenodd" d="M80.017 15.3994H77.3049C77.033 15.3803 76.8146 15.1622 76.8146 14.8943L76.8108 0.929142C76.8338 0.672794 77.0598 0.473839 77.3356 0.473839H79.8599C80.0974 0.485309 80.2928 0.646013 80.3464 0.8641V2.99905H80.3962C81.1585 1.08984 82.2272 0.17923 84.1081 0.17923C85.33 0.17923 86.5213 0.61923 87.2874 1.82445C87.9999 2.94166 87.9999 4.82027 87.9999 6.17087V14.9594C87.9693 15.2043 87.7433 15.3994 87.4751 15.3994H84.7439C84.4949 15.3803 84.2881 15.1966 84.2613 14.9594V7.37609C84.2613 5.84949 84.4375 3.61505 82.5567 3.61505C81.894 3.61505 81.2849 4.05888 80.9823 4.73227C80.5992 5.58549 80.5494 6.43488 80.5494 7.37609V14.8943C80.5456 15.1736 80.3081 15.3994 80.017 15.3994" fill="white"/>
<path fill-rule="evenodd" clip-rule="evenodd" d="M43.7299 8.73053C43.7299 9.79035 43.7567 10.6742 43.2204 11.6154C42.7876 12.3806 42.0981 12.8512 41.3358 12.8512C40.29 12.8512 39.6772 12.0554 39.6772 10.8808C39.6772 8.56218 41.7572 8.14131 43.7299 8.14131V8.73053ZM46.4764 15.3611C46.2964 15.5218 46.0359 15.5333 45.8329 15.4262C44.9289 14.6763 44.7642 14.3281 44.27 13.6126C42.7761 15.1354 41.715 15.5907 39.7806 15.5907C37.4861 15.5907 35.7048 14.1789 35.7048 11.3514C35.7048 9.14375 36.9 7.6401 38.6084 6.90549C40.087 6.25505 42.1517 6.14027 43.7299 5.96045V5.60845C43.7299 4.96184 43.7797 4.19662 43.3966 3.63801C43.0672 3.13679 42.4313 2.93019 41.8682 2.93019C40.8302 2.93019 39.907 3.46201 39.681 4.56392C39.635 4.80879 39.455 5.04984 39.206 5.06132L36.5667 4.77818C36.3445 4.72845 36.0956 4.54862 36.1607 4.2081C36.7659 1.00949 39.6618 0.0453186 42.2513 0.0453186C43.5767 0.0453186 45.3081 0.397319 46.3539 1.39975C47.6792 2.63558 47.5528 4.28462 47.5528 6.07905V10.3184C47.5528 11.5924 48.0814 12.151 48.5794 12.8397C48.7518 13.0846 48.7901 13.3792 48.5679 13.5629C48.0125 14.0258 47.0242 14.8867 46.4803 15.3688L46.4764 15.3611" fill="white"/>
<path fill-rule="evenodd" clip-rule="evenodd" d="M8.02507 8.73071C8.02507 9.79054 8.05188 10.6744 7.5156 11.6156C7.08275 12.3808 6.39707 12.8514 5.63096 12.8514C4.58521 12.8514 3.97615 12.0556 3.97615 10.881C3.97615 8.56236 6.05615 8.1415 8.02507 8.1415V8.73071ZM10.7716 15.3613C10.5916 15.522 10.3311 15.5335 10.1281 15.4264C9.22404 14.6764 9.06316 14.3283 8.56518 13.6128C7.07125 15.1356 6.01402 15.5909 4.07574 15.5909C1.78505 15.5909 0 14.1791 0 11.3516C0 9.14393 1.19897 7.64028 2.90358 6.90567C4.38219 6.25523 6.44687 6.14045 8.02507 5.96063V5.60863C8.02507 4.96202 8.07487 4.1968 7.69564 3.6382C7.36238 3.13698 6.7265 2.93037 6.16724 2.93037C5.12915 2.93037 4.20215 3.46219 3.97615 4.56411C3.93018 4.80898 3.75014 5.05002 3.50498 5.0615L0.861881 4.77837C0.639707 4.72863 0.394549 4.5488 0.455839 4.20828C1.0649 1.00968 3.95699 0.0455017 6.54647 0.0455017C7.87185 0.0455017 9.60327 0.397502 10.649 1.39994C11.9744 2.63576 11.848 4.2848 11.848 6.07924V10.3185C11.848 11.5926 12.3766 12.1512 12.8746 12.8399C13.0508 13.0848 13.0891 13.3794 12.8669 13.5631C12.3115 14.026 11.3232 14.8869 10.7793 15.369L10.7716 15.3613" fill="white"/>
</g>
<defs>
<clipPath id="clip0_591_512">
<rect width="88" height="26.488" fill="white" transform="translate(0 0.0452881)"/>
</clipPath>
</defs>
</svg>
