<svg width="63" height="36" viewBox="0 0 63 36" fill="none" xmlns="http://www.w3.org/2000/svg">
<g clip-path="url(#clip0_591_482)">
<path d="M50.4446 26.129H63V36H50.3703L47.25 33.0968V29.0323L50.4446 26.129Z" fill="white"/>
<path d="M11.2925 7.76613L11.5153 7.69355C11.6639 7.62097 11.8868 7.47581 12.1097 7.33065C12.3325 7.18548 12.5554 6.96774 12.7783 6.75C13.0012 6.53226 13.1498 6.24194 13.3726 5.80645C13.5212 5.44355 13.5955 5.00807 13.5955 4.57258C13.5955 3.48387 13.0755 2.46774 12.0354 1.66936C10.9953 0.87097 9.58373 0.435486 7.80071 0.435486H0V15.9677H8.24646C10.3267 15.9677 14.7099 15.6048 14.7099 11.5403C14.7099 8.41935 11.3667 7.76613 11.2925 7.76613ZM5.12618 4.06452H7.05778C7.42924 4.06452 7.72642 4.1371 8.02359 4.42742C8.24646 4.64516 8.39505 4.93549 8.39505 5.22581C8.39505 5.51613 8.24646 5.80645 8.02359 6.0242C7.72642 6.24194 7.42924 6.3871 7.05778 6.3871H5.12618V4.06452ZM8.69222 11.9758C8.39505 12.2661 8.02358 12.4113 7.57783 12.4113H5.12618V9.65323H7.57783C8.02358 9.65323 8.39505 9.79839 8.69222 10.0887C8.98939 10.379 9.13797 10.6694 9.13797 11.1048C9.13797 11.3952 8.98939 11.6855 8.69222 11.9758Z" fill="white"/>
<path d="M15.3786 24.9677L15.6015 24.8951C15.7501 24.8226 15.973 24.6774 16.1958 24.5322C16.4187 24.3871 16.6416 24.1693 16.8645 23.9516C17.0874 23.7339 17.2359 23.4435 17.4588 23.0081C17.6074 22.6452 17.6817 22.2097 17.6817 21.7742C17.6817 20.6855 17.1617 19.6693 16.1216 18.871C15.0815 18.0726 13.6699 17.6371 11.8869 17.6371H4.08618V33.1693H12.2584C14.3385 33.1693 18.7218 32.8064 18.7218 28.7419C18.7961 25.621 15.4529 25.0403 15.3786 24.9677ZM9.28665 21.2661H11.144C11.5154 21.2661 11.8126 21.4113 12.1098 21.629C12.3326 21.8468 12.4812 22.1371 12.4812 22.4274C12.4812 22.7177 12.3326 23.0081 12.1098 23.2258C11.8869 23.4435 11.5897 23.5887 11.144 23.5887H9.28665V21.2661ZM12.7784 29.1774C12.4812 29.4677 12.1098 29.6129 11.664 29.6129H9.28665V26.8548H11.664C12.1098 26.8548 12.4812 27 12.7784 27.2903C13.0756 27.5806 13.2242 27.871 13.2242 28.3064C13.2242 28.5968 13.0756 28.8871 12.7784 29.1774Z" fill="white"/>
<path d="M27.8597 12.1935H20.2076V9.79839H26.4481V6.24194H20.2076V4.20968H27.8597V0.435486H15.0071V15.9677H27.8597V12.1935Z" fill="white"/>
<path d="M41.0095 0.435486V4.20968H45.2442V15.9677H50.3704V4.20968H54.5307V0.435486H41.0095Z" fill="white"/>
<path d="M35.2147 11.9758C34.9175 12.1935 34.546 12.3387 34.026 12.3387C33.5059 12.3387 32.9859 12.1935 32.4658 11.9032C31.9458 11.6129 31.5743 11.3952 31.3515 11.25C31.2772 11.1774 31.1286 11.1048 31.0543 11.0323L28.0083 13.8629L28.2312 14.0806C28.3798 14.2984 28.6769 14.5161 29.0484 14.7339C29.4199 15.0242 29.8656 15.2419 30.3857 15.5323C30.9057 15.8226 31.5 16.0403 32.3173 16.1855C33.0602 16.4032 33.8774 16.4758 34.6946 16.4758C36.7005 16.4758 38.335 15.9677 39.5236 14.9516C40.7123 13.9355 41.3066 12.7016 41.3066 11.25C41.3066 10.4516 41.1581 9.65323 40.7866 9.07258C40.4151 8.41936 40.0437 7.98387 39.5236 7.62097C39.0036 7.33065 38.4835 7.04032 37.8892 6.75C37.3691 6.53226 36.8491 6.31452 36.3291 6.24194C36.2548 6.24194 36.2548 6.24194 36.1805 6.24194C35.6604 6.09677 35.2147 5.95161 34.9175 5.73387C34.546 5.51613 34.3975 5.37097 34.3975 5.08065C34.3975 4.79032 34.546 4.57258 34.7689 4.35484C34.9918 4.1371 35.3633 4.06452 35.809 4.06452C36.8491 4.06452 37.5177 4.5 37.8149 4.8629L40.8609 2.03226L40.7866 1.95968C40.638 1.81452 40.4151 1.59677 40.118 1.37903C39.8208 1.16129 39.4493 0.943548 39.0036 0.725806C38.5578 0.508065 38.0378 0.290323 37.2949 0.145161C36.5519 0.0725807 35.809 0 35.0661 0C33.1345 0 31.6486 0.508065 30.46 1.45161C29.2713 2.46774 28.6769 3.62903 28.6769 4.93548C28.6769 5.66129 28.8255 6.31452 29.0484 6.82258C29.2713 7.40323 29.6427 7.83871 30.0142 8.20161C30.3857 8.56452 30.8314 8.85484 31.3515 9.07258C31.7972 9.29032 32.1687 9.43548 32.6144 9.58065C32.6887 9.58065 32.763 9.65323 32.8373 9.65323C33.3574 9.79839 33.8031 9.94355 34.1746 10.0887C34.546 10.2339 34.9175 10.379 35.1404 10.5242C35.3633 10.6694 35.5118 10.8871 35.5118 11.0323C35.6604 11.4677 35.5118 11.7581 35.2147 11.9758Z" fill="white"/>
<path d="M27.8597 26.8548C27.8597 27.871 27.0425 28.7419 25.9281 28.7419C24.8881 28.7419 23.9965 27.9435 23.9965 26.8548V17.6371H18.8704V26.6371C18.8704 30.3387 21.9164 33.3871 25.7796 33.3871H26.0767C29.8656 33.3871 32.9859 30.4113 32.9859 26.6371V17.6371H27.8597V26.8548Z" fill="white"/>
<path d="M41.7523 22.9355L38.4091 17.6371H33.283L39.2264 27.6532V33.1693H44.3525V27.6532L50.2959 17.6371H45.1698L41.7523 22.9355Z" fill="white"/>
<path d="M49.7758 31.0645C49.7758 31.4274 49.4787 31.6452 49.1815 31.6452C48.8843 31.6452 48.5872 31.3549 48.5872 31.0645C48.5872 30.7016 48.8843 30.4839 49.1815 30.4839C49.4787 30.4839 49.7758 30.7016 49.7758 31.0645Z" fill="white"/>
<path d="M50.4445 22.1371H50.073V21.9919H50.9645V22.1371H50.593V23.2258H50.4445V22.1371ZM51.1874 21.9919H51.4103L51.7817 22.9355L52.1532 21.9919H52.3761V23.1532H52.2275V22.1371L51.7817 23.1532H51.7074L51.2617 22.1371V23.1532H51.1131V21.9919H51.1874Z" fill="white"/>
</g>
<defs>
<clipPath id="clip0_591_482">
<rect width="63" height="36" fill="white"/>
</clipPath>
</defs>
</svg>
