<svg width="106" height="30" viewBox="0 0 106 30" fill="none" xmlns="http://www.w3.org/2000/svg">
<g clip-path="url(#clip0_591_494)">
<path d="M36.6714 16.6824C35.7688 16.1882 35.2938 15.7882 35.2938 15.2235C35.2938 14.4941 35.9351 14.0471 36.9564 14.0471C38.1439 14.0471 39.189 14.5412 39.189 14.5412L40.0202 12.0235C40.0202 12.0235 39.2602 11.4353 37.0039 11.4353C33.8688 11.4353 31.6837 13.2235 31.6837 15.7177C31.6837 17.1294 32.705 18.2118 34.0588 18.9882C35.1513 19.6 35.5313 20.0471 35.5313 20.6824C35.5313 21.3647 34.9851 21.9059 33.9638 21.9059C32.4437 21.9059 31.0187 21.1294 31.0187 21.1294L30.1399 23.6471C30.1399 23.6471 31.4699 24.5177 33.6788 24.5177C36.9089 24.5177 39.2127 22.9412 39.2127 20.1177C39.2602 18.5647 38.0727 17.4824 36.6714 16.6824Z" fill="white"/>
<path d="M49.5442 11.3882C47.9529 11.3882 46.7179 12.1412 45.7441 13.2706L45.6966 13.2471L47.0742 6.09412H43.464L39.9727 24.2824H43.559L44.7466 18.0706C45.2216 15.7176 46.4329 14.2824 47.5729 14.2824C48.3805 14.2824 48.6892 14.8235 48.6892 15.6C48.6892 16.0941 48.6417 16.6824 48.523 17.1765L47.1692 24.3059H50.7555L52.1568 16.9647C52.3231 16.1882 52.4181 15.2706 52.4181 14.6353C52.4656 12.5882 51.4206 11.3882 49.5442 11.3882Z" fill="white"/>
<path d="M60.5884 11.3882C56.2657 11.3882 53.3918 15.2471 53.3918 19.5529C53.3918 22.3059 55.1019 24.5412 58.332 24.5412C62.5834 24.5412 65.4335 20.7765 65.4335 16.3765C65.4573 13.8118 63.961 11.3882 60.5884 11.3882ZM58.8308 21.7882C57.5957 21.7882 57.097 20.7529 57.097 19.4588C57.097 17.4118 58.1658 14.0941 60.1133 14.0941C61.3959 14.0941 61.7996 15.1765 61.7996 16.2353C61.7996 18.4471 60.7309 21.7882 58.8308 21.7882Z" fill="white"/>
<path d="M74.6489 11.3882C72.2263 11.3882 70.8488 13.5059 70.8488 13.5059H70.8013L71.015 11.6H67.8324C67.6662 12.8941 67.3811 14.8471 67.0961 16.3294L64.6023 29.3177H68.1887L69.1862 24.0471H69.2575C69.2575 24.0471 69.9937 24.5177 71.3713 24.5177C75.5989 24.5177 78.354 20.2353 78.354 15.9059C78.354 13.5294 77.2852 11.3882 74.6489 11.3882ZM71.2288 21.8588C70.3025 21.8588 69.7562 21.3412 69.7562 21.3412L70.35 18.0235C70.7775 15.8118 71.9413 14.3294 73.1764 14.3294C74.2689 14.3294 74.6014 15.3412 74.6014 16.2824C74.6014 18.5647 73.2238 21.8588 71.2288 21.8588Z" fill="white"/>
<path d="M83.4843 6.28235C82.3443 6.28235 81.418 7.17647 81.418 8.35294C81.418 9.41176 82.083 10.1412 83.1043 10.1412H83.1518C84.2681 10.1412 85.2419 9.38823 85.2656 8.07058C85.2894 7.01176 84.5768 6.28235 83.4843 6.28235Z" fill="white"/>
<path d="M78.4492 24.2824H82.0593L84.5057 11.6706H80.8718L78.4492 24.2824Z" fill="white"/>
<path d="M93.626 11.6471H91.1321L91.2509 11.0588C91.4646 9.8353 92.1772 8.75294 93.3884 8.75294C94.0297 8.75294 94.5285 8.94118 94.5285 8.94118L95.241 6.16471C95.241 6.16471 94.6235 5.85883 93.2934 5.85883C92.0109 5.85883 90.7521 6.21177 89.7783 7.0353C88.5433 8.07059 87.9733 9.55294 87.6882 11.0588L87.5932 11.6471H85.9307L85.4082 14.3294H87.0707L85.1707 24.2824H88.757L90.6571 14.3294H93.1272L93.626 11.6471Z" fill="white"/>
<path d="M102.271 11.6706C102.271 11.6706 100.015 17.2706 99.0172 20.3294H98.9697C98.8985 19.3412 98.0909 11.6706 98.0909 11.6706H94.3145L96.4759 23.2471C96.5234 23.5059 96.4996 23.6706 96.4046 23.8353C95.9771 24.6353 95.2883 25.4118 94.4571 25.9765C93.792 26.4706 93.032 26.7765 92.4382 26.9882L93.4358 30C94.172 29.8353 95.6683 29.2471 96.9509 28.0706C98.5897 26.5412 100.11 24.2118 101.654 21.0118L106.047 11.6706H102.271Z" fill="white"/>
<path d="M17.7657 3.48237C17.7657 3.48237 17.4332 3.57648 16.8869 3.74119C16.7919 3.43531 16.6494 3.08237 16.4594 2.7059C15.8418 1.52943 14.9156 0.894132 13.823 0.894132C13.7518 0.894132 13.6805 0.894132 13.5855 0.917661C13.5618 0.870602 13.5143 0.847073 13.4905 0.800014C13.0155 0.282367 12.398 0.0470729 11.6617 0.0706023C10.2366 0.117661 8.8116 1.12943 7.67156 2.94119C6.86403 4.21178 6.24651 5.81178 6.08025 7.05884C4.44144 7.55296 3.3014 7.9059 3.27765 7.92943C2.44637 8.18825 2.42262 8.21178 2.32762 8.98825C2.25637 9.57649 0.0712891 26.1412 0.0712891 26.1412L18.0269 29.2235V3.45884C17.8844 3.45884 17.8132 3.48237 17.7657 3.48237ZM13.6093 4.75296C12.6592 5.03531 11.6142 5.36472 10.5929 5.6706C10.8779 4.56472 11.4479 3.45884 12.113 2.72943C12.3742 2.4706 12.7305 2.16472 13.1343 1.97648C13.538 2.82354 13.633 3.97648 13.6093 4.75296ZM11.6617 1.03531C11.9942 1.03531 12.2792 1.1059 12.5167 1.24707C12.1367 1.43531 11.7567 1.74119 11.4004 2.09413C10.4979 3.05884 9.80913 4.56472 9.52412 6.00001C8.66909 6.25884 7.81406 6.51766 7.03029 6.75296C7.5528 4.49413 9.47662 1.08237 11.6617 1.03531ZM8.9066 13.9765C9.00161 15.4824 13.0155 15.8118 13.253 19.3647C13.4193 22.1647 11.7567 24.0706 9.35787 24.2118C6.46027 24.4 4.86896 22.7059 4.86896 22.7059L5.48648 20.1177C5.48648 20.1177 7.07779 21.3177 8.36033 21.2235C9.19161 21.1765 9.50037 20.4941 9.47662 20.0235C9.35787 18.0471 6.08025 18.1647 5.86649 14.9177C5.67649 12.1882 7.48155 9.43531 11.4717 9.17649C13.0155 9.08237 13.7993 9.45884 13.7993 9.45884L12.8967 12.8471C12.8967 12.8471 11.8755 12.3765 10.6642 12.4706C8.9066 12.5883 8.88285 13.6941 8.9066 13.9765ZM14.5593 4.4706C14.5593 3.76472 14.4643 2.75296 14.1318 1.9059C15.2243 2.11766 15.7468 3.31766 15.9844 4.04707C15.5568 4.16472 15.0818 4.3059 14.5593 4.4706Z" fill="white"/>
<path d="M18.5732 29.1765L26.031 27.3412C26.031 27.3412 22.8246 5.85883 22.8009 5.71765C22.7771 5.57647 22.6584 5.48236 22.5396 5.48236C22.4209 5.48236 20.3308 5.4353 20.3308 5.4353C20.3308 5.4353 19.0483 4.21177 18.5732 3.74118V29.1765Z" fill="white"/>
</g>
<defs>
<clipPath id="clip0_591_494">
<rect width="106" height="30" fill="white"/>
</clipPath>
</defs>
</svg>
