<svg width="107" height="26" viewBox="0 0 107 26" fill="none" xmlns="http://www.w3.org/2000/svg">
<g clip-path="url(#clip0_591_508)">
<path fill-rule="evenodd" clip-rule="evenodd" d="M59.452 16.53C59.452 16.7337 59.4182 16.9713 59.3843 17.141C59.08 18.0235 58.2683 18.6005 57.3214 18.6005C56.476 18.6005 55.8334 18.1253 55.8334 17.107C55.8334 15.5457 57.5243 15.1384 59.4858 15.1384V16.53H59.452ZM62.4956 13.8146C62.4956 11.2689 61.4134 8.99477 57.7272 8.99477C55.8334 8.99477 54.3116 9.53785 53.5 10.013L54.1087 12.0835C55.0556 11.5405 56.104 11.235 57.1862 11.201C59.08 11.201 59.3843 12.2533 59.3843 12.9321V13.1018C55.2924 13.1018 52.7222 14.5274 52.7222 17.4125C52.7222 19.1775 54.0411 20.8407 56.3407 20.8407C57.7273 20.8407 58.9109 20.2976 59.6211 19.3812H59.6887C59.6887 19.3812 60.1621 21.3499 62.7323 20.6031C62.597 19.7885 62.5294 18.906 62.5294 17.8877L62.4956 13.8146ZM0 5.49869L3.11125 18.2611C3.61852 20.3316 4.49779 21.1123 7.06795 20.6031L8.72503 13.8146C9.13085 12.1175 9.43521 10.9295 9.70575 9.19843H9.73957C9.94248 10.9295 10.213 12.1175 10.5512 13.8146L11.5657 18.5326C11.9377 20.1619 12.8846 21.1801 15.421 20.6031L19.3777 5.53263H16.165L14.8123 12.0496C14.4403 13.9504 14.1021 15.4439 13.8654 17.1749C13.6286 15.4439 13.3243 14.0183 12.9523 12.1854L11.5657 5.53263H8.21776L6.69595 12.0157C6.29014 13.9843 5.88432 15.5796 5.61378 17.2428H5.57996C5.30942 15.6815 4.97124 13.6788 4.59924 11.7781L3.3818 5.49869H0ZM25.262 16.53C25.262 16.7337 25.262 16.9713 25.1944 17.141C24.89 18.0235 24.0784 18.6005 23.1315 18.6005C22.286 18.6005 21.6435 18.1253 21.6435 17.107C21.6435 15.5457 23.3344 15.1384 25.2958 15.1384V16.53H25.262ZM28.3394 13.8146C28.3394 11.2689 27.2573 8.99477 23.5711 8.99477C21.6773 8.99477 20.1555 9.53785 19.3439 10.013L19.9526 12.0835C20.8995 11.5405 21.9479 11.235 23.03 11.201C24.9238 11.201 25.2282 12.2533 25.2282 12.9321V13.1018C21.1362 13.1018 18.5661 14.5274 18.5661 17.4125C18.5661 19.1775 19.885 20.8407 22.1846 20.8407C23.5711 20.8407 24.7547 20.2976 25.4649 19.3812H25.5326C25.5326 19.3812 26.006 21.3499 28.5762 20.6031C28.4409 19.7885 28.3733 18.906 28.3733 17.8877L28.3394 13.8146ZM33.0401 17.3786V5.49869H29.9965V20.5692H33.0401V17.3786ZM71.8632 5.53263V16.6318C71.8632 18.1593 72.1337 19.2454 72.7762 19.8903C73.3173 20.4674 74.1966 20.8407 75.2449 20.8407C76.158 20.8407 77.0373 20.671 77.4431 20.5013L77.4093 18.0914C77.1049 18.1932 76.7329 18.2271 76.2595 18.2271C75.2111 18.2271 74.873 17.5822 74.873 16.1906V11.9817H77.5446V9.0966H74.873V5.49869L71.8632 5.53263ZM63.9836 9.26631V20.6031H67.1286V14.7989C67.1286 14.4935 67.1625 14.2219 67.1963 13.9504C67.433 12.7285 68.3461 11.9478 69.6988 11.9478C70.0708 11.9478 70.3075 11.9817 70.6119 12.0157V9.02871C70.3752 8.99477 70.1384 8.96083 69.9355 8.96083C68.7519 8.96083 67.433 9.70756 66.8581 11.3707H66.7905V9.23237L63.9836 9.26631ZM34.8325 9.26631V20.6031H37.8761V13.9504C37.8761 13.6449 37.9099 13.3055 38.0114 13.0339C38.2481 12.3551 38.8906 11.5744 39.8714 11.5744C41.1226 11.5744 41.6975 12.6266 41.6975 14.1201V20.5692H44.775V13.8486C44.775 13.5431 44.8088 13.1697 44.9102 12.9321C45.147 12.1175 45.9248 11.5405 46.7702 11.5405C48.0215 11.5405 48.6302 12.5587 48.6302 14.3577V20.5692H51.7077V13.9164C51.7077 10.4204 49.9153 8.99477 47.92 8.99477C47.007 8.99477 46.3306 9.23237 45.6881 9.60574C45.147 9.94516 44.6735 10.4204 44.2677 11.0313H44.2339C43.7266 9.77545 42.4754 8.96083 41.1226 8.99477C39.7699 8.92689 38.4848 9.60574 37.8423 10.7937H37.8085V9.26631H34.8325Z" fill="white"/>
<path fill-rule="evenodd" clip-rule="evenodd" d="M94.0139 8.75718C94.6226 8.75718 95.1299 8.41776 95.1975 8.04439L95.7724 1.22193C95.7724 0.543081 94.9946 0 94.0139 0C93.0332 0 92.2553 0.543081 92.2553 1.22193L92.8641 8.04439C92.8979 8.4517 93.4052 8.75718 94.0139 8.75718ZM90.3277 10.8956C90.6321 10.3525 90.5983 9.77546 90.2939 9.50392L84.7139 5.60052C84.139 5.2611 83.2598 5.66841 82.7863 6.51697C82.279 7.36554 82.3805 8.34987 82.9554 8.65535L89.1441 11.5405C89.5161 11.6762 90.0572 11.4047 90.3277 10.8956ZM97.6662 10.8616C97.9706 11.4047 98.4778 11.6762 98.8837 11.5065L105.039 8.62141C105.613 8.28198 105.715 7.33159 105.208 6.48303C104.7 5.63447 103.855 5.22715 103.28 5.56658L97.7 9.50392C97.3957 9.77546 97.3619 10.3525 97.6662 10.8616ZM94.0139 17.2428C94.6226 17.2428 95.1299 17.5822 95.1975 17.9556L95.7724 24.7781C95.7724 25.4569 94.9946 26 94.0139 26C93.0332 26 92.2553 25.4569 92.2553 24.7781L92.8641 17.9556C92.8979 17.5483 93.4052 17.2428 94.0139 17.2428ZM97.6662 15.1384C97.9706 14.5953 98.4778 14.3238 98.8837 14.4595L105.039 17.3446C105.613 17.6841 105.715 18.6345 105.208 19.483C104.7 20.3316 103.855 20.7389 103.28 20.3995L97.7 16.4961C97.3957 16.2585 97.3619 15.6475 97.6662 15.1384ZM90.3277 15.1384C90.6321 15.6475 90.5983 16.2585 90.2939 16.53L84.7139 20.4334C84.139 20.7728 83.2598 20.3655 82.7863 19.517C82.279 18.6684 82.3805 17.718 82.9554 17.3786L89.1441 14.4935C89.5161 14.3238 90.0572 14.5953 90.3277 15.1384ZM106.357 19.8225H106.425C106.493 19.8225 106.56 19.7885 106.56 19.7546C106.56 19.6867 106.527 19.6867 106.459 19.6867H106.391V19.8225H106.357ZM106.357 20.1279H106.222V19.5849H106.425C106.527 19.5849 106.56 19.5849 106.628 19.6188C106.662 19.6527 106.696 19.6867 106.696 19.7206C106.696 19.7885 106.662 19.8225 106.594 19.8564C106.662 19.8903 106.696 19.9243 106.696 19.9922C106.696 20.094 106.729 20.094 106.729 20.1279H106.594C106.56 20.094 106.56 20.0601 106.56 19.9922C106.56 19.9243 106.527 19.9243 106.459 19.9243H106.391L106.357 20.1279ZM106.425 19.4151C106.188 19.4151 106.019 19.6188 106.019 19.8564C106.019 20.094 106.188 20.2976 106.425 20.2976C106.662 20.2976 106.831 20.094 106.831 19.8564C106.865 19.6188 106.662 19.4151 106.425 19.4151ZM106.425 19.3133C106.729 19.3133 106.966 19.5509 106.966 19.8564C106.966 20.1619 106.729 20.3995 106.425 20.3995C106.121 20.3995 105.85 20.1619 105.85 19.8564C105.884 19.5509 106.121 19.3133 106.425 19.3133Z" fill="white"/>
</g>
<defs>
<clipPath id="clip0_591_508">
<rect width="107" height="26" fill="white"/>
</clipPath>
</defs>
</svg>
